<svg xmlns="http://www.w3.org/2000/svg" xmlns:xlink="http://www.w3.org/1999/xlink">
    <symbol id="icon-spinner" xmlns="http://www.w3.org/2000/svg" viewBox="0 0 80 80">
        <path fill="#FF4949" d="M40 72C22.4 72 8 57.6 8 40S22.4 8 40 8s32 14.4 32 32c0 1.1-.9 2-2 2s-2-.9-2-2c0-15.4-12.6-28-28-28S12 24.6 12 40s12.6 28 28 28c1.1 0 2 .9 2 2s-.9 2-2 2z" />
    </symbol>
    <symbol id="icon-people" xmlns="http://www.w3.org/2000/svg" viewBox="0 0 24 24" fill="red">
        <path fill="none" d="M0 0h24v24H0z"/>
        <path d="M16.67 13.13C18.04 14.06 19 15.32 19 17v3h4v-3c0-2.18-3.57-3.47-6.33-3.87z" fill-rule="evenodd"/>
        <circle cx="9" cy="8" fill-rule="evenodd" r="4"/>
        <path d="M15 12c2.21 0 4-1.79 4-4s-1.79-4-4-4c-.47 0-.91.1-1.33.24a5.98 5.98 0 010 7.52c.42.14.86.24 1.33.24zM9 13c-2.67 0-8 1.34-8 4v3h16v-3c0-2.66-5.33-4-8-4z" fill-rule="evenodd"/>
    </symbol>
    <symbol id="icon-time" xmlns="http://www.w3.org/2000/svg" viewBox="0 0 24 24">
        <path d="M0 0h24v24H0z" fill="none"/>
        <path d="M11.99 2C6.47 2 2 6.48 2 12s4.47 10 9.99 10C17.52 22 22 17.52 22 12S17.52 2 11.99 2zM12 20c-4.42 0-8-3.58-8-8s3.58-8 8-8 8 3.58 8 8-3.58 8-8 8z"/>
        <path d="M12.5 7H11v6l5.25 3.15.75-1.23-4.5-2.67z"/>
    </symbol>
</svg>
